<?xml version="1.0" encoding="UTF-8"?>
<svg width="24px" height="24px" viewBox="0 0 24 24" version="1.1" xmlns="http://www.w3.org/2000/svg">
    <path d="M23.745,12.27 C23.745,11.48 23.675,10.73 23.555,10 L12.255,10 L12.255,14.51 L18.725,14.51 C18.435,15.99 17.585,17.24 16.325,18.09 L16.325,21.09 L20.185,21.09 C22.445,19 23.745,15.92 23.745,12.27 Z" fill="#4285F4"/>
    <path d="M12.255,24 C15.495,24 18.205,22.92 20.185,21.09 L16.325,18.09 C15.245,18.81 13.875,19.25 12.255,19.25 C9.12504,19.25 6.47504,17.14 5.52504,14.29 L1.54504,14.29 L1.54504,17.38 C3.51504,21.3 7.56504,24 12.255,24 Z" fill="#34A853"/>
    <path d="M5.52504,14.29 C5.27504,13.57 5.14504,12.8 5.14504,12 C5.14504,11.2 5.28504,10.43 5.52504,9.71 L5.52504,6.62 L1.54504,6.62 C0.725041,8.24 0.255041,10.06 0.255041,12 C0.255041,13.94 0.725041,15.76 1.54504,17.38 L5.52504,14.29 Z" fill="#FBBC05"/>
    <path d="M12.255,4.75 C14.025,4.75 15.605,5.36 16.855,6.55 L20.275,3.13 C18.205,1.19 15.495,0 12.255,0 C7.56504,0 3.51504,2.7 1.54504,6.62 L5.52504,9.71 C6.47504,6.86 9.12504,4.75 12.255,4.75 Z" fill="#EA4335"/>
</svg> 